<svg xmlns="http://www.w3.org/2000/svg" viewBox="0 0 320 100"><defs><symbol id="sparkle" viewBox="-30 -30 60 60" overflow="visible"><path fill="#D4A574" d="M 0 -28 C 1.5 -6, 6 -1.5, 28 0 C 6 1.5, 1.5 6, 0 28 C -1.5 6, -6 1.5, -28 0 C -6 -1.5, -1.5 -6, 0 -28 Z"></path><g stroke="#D4A574" stroke-width="0.6" stroke-linecap="round" opacity="0.55"><line x1="-20" y1="-20" x2="20" y2="20"></line><line x1="20" y1="-20" x2="-20" y2="20"></line></g></symbol></defs><path fill="none" stroke="#3B6FA8" stroke-width="4.5" stroke-linecap="round" d="M 4 80 C 28 16, 160 -4, 316 18"></path><g><g fill="#FBF8F2"><circle cx="22" cy="80" r="10"></circle><circle cx="40" cy="90" r="8"></circle><circle cx="118" cy="90" r="10"></circle><circle cx="158" cy="86" r="8"></circle><circle cx="194" cy="90" r="7"></circle><circle cx="298" cy="82" r="10"></circle><circle cx="2" cy="74" r="7"></circle><circle cx="96" cy="94" r="7"></circle><circle cx="218" cy="94" r="6"></circle></g><g fill="#C8CCD1" opacity="0.55"><circle cx="32" cy="94" r="5"></circle><circle cx="138" cy="96" r="5"></circle><circle cx="280" cy="94" r="5"></circle><circle cx="0" cy="86" r="4"></circle><circle cx="80" cy="98" r="4.5"></circle></g></g>
  <path fill="#0B1428" fill-rule="evenodd" d="M 4 82 L 0 68 C 0 56, 8 46, 28 44 L 48 42 C 90 40, 134 40, 172 44 C 184 36, 196 28, 214 22 L 246 22 C 258 24, 268 32, 278 50 L 294 56 C 302 60, 304 70, 300 82 L 284 82 A 14 14 0 0 0 256 82 L 78 82 A 14 14 0 0 0 50 82 Z"></path>
  <path fill="#FBF8F2" opacity="0.65" d="M 178 44 L 214 24 L 244 24 L 270 50 Z"></path>
  <g>
    <circle cx="270" cy="82" r="14" fill="#0B1428"></circle>
    <circle cx="270" cy="82" r="9.5" fill="none" stroke="#3B6FA8" stroke-width="1.4" opacity="0.85"></circle>
    <circle cx="270" cy="82" r="3.5" fill="#3B6FA8"></circle>
    <circle cx="64" cy="82" r="14" fill="#0B1428"></circle>
    <circle cx="64" cy="82" r="9.5" fill="none" stroke="#3B6FA8" stroke-width="1.4" opacity="0.85"></circle>
    <circle cx="64" cy="82" r="3.5" fill="#3B6FA8"></circle>
  </g>
  <path fill="#D4A574" d="M 10 54 L 30 50 L 32 56 L 12 60 Z"></path><use href="#sparkle" x="240" y="-8" width="34" height="34"></use><use href="#sparkle" x="218" y="16" width="14" height="14"></use><use href="#sparkle" x="276" y="14" width="10" height="10"></use><use href="#sparkle" x="74" y="6" width="13" height="13"></use><use href="#sparkle" x="42" y="26" width="9" height="9"></use><use href="#sparkle" x="148" y="0" width="9" height="9"></use><use href="#sparkle" x="116" y="22" width="7" height="7"></use><use href="#sparkle" x="184" y="10" width="8" height="8"></use></svg>